<?xml version="1.0" standalone="no"?>
<!DOCTYPE svg PUBLIC "-//W3C//DTD SVG 1.1//EN" "http://www.w3.org/Graphics/SVG/1.1/DTD/svg11.dtd" >
<!--
2013-9-30: Created.
-->
<svg>
<metadata>
Created by iconfont
</metadata>
<defs>

<font id="iconfont" horiz-adv-x="1024" >
  <font-face
    font-family="iconfont"
    font-weight="500"
    font-stretch="normal"
    units-per-em="1024"
    ascent="896"
    descent="-128"
  />
    <missing-glyph />
    
    <glyph glyph-name="RoundedCheckbox" unicode="&#58899;" d="M512-32c230.4 0 416 185.6 416 416S742.4 800 512 800 96 614.4 96 384s185.6-416 416-416z m0-51.2C256-83.2 44.8 128 44.8 384S256 851.2 512 851.2 979.2 640 979.2 384 768-83.2 512-83.2z"  horiz-adv-x="1024" />

    
    <glyph glyph-name="RoundedCheckbox1" unicode="&#58900;" d="M512 384m-467.2 0a467.2 467.2 0 1 1 934.4 0 467.2 467.2 0 1 1-934.4 0ZM416 140.8l-217.6 256 70.4 64 153.6-179.2 339.2 300.8 64-70.4z"  horiz-adv-x="1024" />

    
    <glyph glyph-name="iconjianshao" unicode="&#58901;" d="M921.6-128H102.4C43.885714-128 0-84.114286 0-25.6V793.6C0 852.114286 43.885714 896 102.4 896h822.857143C980.114286 896 1024 852.114286 1024 793.6v-822.857143c0-54.857143-43.885714-98.742857-102.4-98.742857zM102.4 841.142857c-25.6 0-43.885714-21.942857-43.885714-43.885714v-822.857143c0-25.6 21.942857-43.885714 43.885714-43.885714h822.857143c25.6 0 43.885714 21.942857 43.885714 43.885714V793.6c0 25.6-21.942857 43.885714-43.885714 43.885714H102.4zM698.514286 365.714286v-51.2H329.142857v51.2h369.371429z"  horiz-adv-x="1024" />

    
    <glyph glyph-name="icondaohang" unicode="&#58902;" d="M553.890909 2.327273l-69.818182 274.618182-349.090909 51.2-13.963636 65.163636 744.727273 395.636364 51.2-41.89091L716.8 151.272727l-65.163636 18.618182 172.218181 516.654546-572.50909-307.2 265.30909-37.236364 27.927273-23.272727 74.472727-297.890909z"  horiz-adv-x="1024" />

    
    <glyph glyph-name="iconloudoushaixuanxuanzhong" unicode="&#58903;" d="M625.777778-71.111111l-284.444445 170.666667V384L96.711111 725.333333h807.822222L625.777778 384v-455.111111z m-199.111111 216.177778l113.777777-68.266667V412.444444l182.044445 227.555556H261.688889l164.977778-227.555556v-267.377777z"  horiz-adv-x="1024" />

    
    <glyph glyph-name="iconkebufenchengjiao" unicode="&#58904;" d="M512 384m-455.111111 0a455.111111 455.111111 0 1 1 910.222222 0 455.111111 455.111111 0 1 1-910.222222 0ZM284.444444 384l91.022223 91.022222 91.022222-182.044444 227.555555 318.577778 45.511112-45.511112L466.488889 156.444444 329.955556 384z"  horiz-adv-x="1024" />

    
    <glyph glyph-name="iconzengjia" unicode="&#58905;" d="M921.6-128H102.4C43.885714-128 0-84.114286 0-25.6V793.6C0 852.114286 43.885714 896 102.4 896h822.857143C980.114286 896 1024 852.114286 1024 793.6v-822.857143c0-54.857143-43.885714-98.742857-102.4-98.742857zM102.4 841.142857c-25.6 0-43.885714-21.942857-43.885714-43.885714v-822.857143c0-25.6 21.942857-43.885714 43.885714-43.885714h822.857143c25.6 0 43.885714 21.942857 43.885714 43.885714V793.6c0 25.6-21.942857 43.885714-43.885714 43.885714H102.4zM537.6 570.514286v-160.914286h160.914286v-51.2h-160.914286v-160.914286h-51.2v160.914286H329.142857v51.2h160.914286V570.514286h47.542857z"  horiz-adv-x="1024" />

    
    <glyph glyph-name="iconwanbeidingdan" unicode="&#58906;" d="M884.363636-11.636364v698.181819h-139.636363V756.363636h209.454545v-837.818181H93.090909V756.363636h186.181818v-69.818181H162.909091v-698.181819zM660.945455 802.909091v-167.563636H363.054545V802.909091h65.163637v-97.745455h167.563636V802.909091zM279.272727 360.727273V430.545455h488.727273v-69.818182zM279.272727 221.090909V290.909091h256v-69.818182z"  horiz-adv-x="1024" />

    
    <glyph glyph-name="iconshoujihuanbang" unicode="&#58907;" d="M318.577778 668.444444v-591.644444h409.6V668.444444H318.577778z m-45.511111 45.511112h500.622222v-682.666667H273.066667V713.955556zM507.448889 470.471111L477.866667 506.88l45.511111 54.613333c27.306667 34.133333 79.644444 38.684444 111.502222 9.102223s38.684444-79.644444 9.102222-111.502223l-65.991111-77.368889-27.306667 36.408889 59.164445 70.542223c11.377778 13.653333 9.102222 36.408889-4.551111 47.786666-13.653333 11.377778-36.408889 9.102222-47.786667-4.551111l-50.062222-61.44zM477.866667 436.337778l-50.062223-59.164445c-11.377778-13.653333-9.102222-36.408889 4.551112-47.786666 13.653333-11.377778 36.408889-9.102222 47.786666 4.551111l43.235556 50.062222 29.582222-36.408889-36.408889-43.235555c-27.306667-34.133333-79.644444-38.684444-111.502222-9.102223-34.133333 27.306667-38.684444 79.644444-9.102222 111.502223l54.613333 65.991111 27.306667-36.408889zM455.111111 133.688889v45.511111h136.533333v-45.511111z"  horiz-adv-x="1024" />

    
    <glyph glyph-name="shanchu-" unicode="&#58908;" d="M512 839.111111a455.111111 455.111111 0 1 1 455.111111-455.111111 455.111111 455.111111 0 0 1-455.111111 455.111111z m227.555556-512H284.444444V440.888889h455.111112z"  horiz-adv-x="1024" />

    
    <glyph glyph-name="iconwanbeimingxi" unicode="&#58909;" d="M572.509091 407.272727H456.145455V477.090909h83.781818l-69.818182 102.4 55.854545 37.236364L605.090909 505.018182 684.218182 616.727273l55.854545-37.236364L670.254545 477.090909h88.436364v-69.818182h-116.363636V337.454545h116.363636v-69.818181h-116.363636v-139.636364h-69.818182v139.636364H456.145455V337.454545h116.363636zM977.454545-34.909091H232.727273V802.909091h744.727272v-363.054546l-18.618181-9.30909c-13.963636-9.309091-23.272727-23.272727-23.272728-46.545455 0-18.618182 9.309091-32.581818 27.927273-41.890909l18.618182-9.309091V-34.909091zM302.545455 34.909091h605.090909V290.909091c-27.927273 23.272727-46.545455 55.854545-46.545455 93.090909s13.963636 69.818182 41.890909 93.090909V733.090909H302.545455v-698.181818zM93.090909 802.909091h69.818182v-837.818182H93.090909z"  horiz-adv-x="1024" />

    
    <glyph glyph-name="iconxiugaidenglumima" unicode="&#58910;" d="M334.506667 440.888889c-4.551111 25.031111-6.826667 40.96-6.826667 45.511111l-4.551111 52.337778c-9.102222 100.124444 65.991111 188.871111 166.115555 197.973333 100.124444 9.102222 188.871111-65.991111 197.973334-166.115555l2.275555-36.408889-45.511111-4.551111-2.275555 36.408888c-6.826667 75.093333-72.817778 131.982222-147.911111 125.155556s-129.706667-72.817778-125.155556-147.911111l4.551111-52.337778c0-4.551111 2.275556-20.48 6.826667-50.062222H750.933333v-386.844445H250.311111V440.888889h84.195556zM295.822222 395.377778v-295.822222h409.6V395.377778H295.822222zM523.377778 304.355556v-113.777778h-45.511111v113.777778z"  horiz-adv-x="1024" />

    
    <glyph glyph-name="logowenzi" unicode="&#58911;" d="M196.923077 628.184615h145.723077V734.523077H196.923077zM716.8 817.230769l-122.092308-35.446154v-110.276923l122.092308 35.446154zM338.707692 92.553846V573.046154H196.923077v-106.338462h35.446154v-389.907692c0-133.907692 149.661538-122.092308 149.661538-122.092308h531.692308v106.338462H382.030769c-47.261538 0-43.323077 31.507692-43.323077 31.507692M716.8 482.461538c0-15.753846-3.938462-39.384615-23.630769-55.138461l-47.261539-51.2-47.261538 51.2c-15.753846 15.753846-19.692308 39.384615-23.630769 55.138461V541.538462h137.846153v-59.076924z m-244.184615 0c-3.938462-63.015385 23.630769-106.338462 35.446153-122.092307l3.938462-3.938462 59.076923-63.015384-129.969231-141.784616 82.707693-70.892307 122.092307 129.96923 122.092308-129.96923 82.707692 70.892307-129.96923 141.784616 59.076923 63.015384 3.938461 3.938462c11.815385 11.815385 39.384615 55.138462 35.446154 122.092307V541.538462H905.846154V643.938462H397.784615V541.538462H472.615385v-59.076924zM2028.307692 553.353846h86.646154v-161.476923h-86.646154v-106.338461h86.646154v-208.738462l-86.646154-19.692308v-102.4l283.569231 59.076923v106.338462l-90.584615-19.692308v185.107693h90.584615v106.338461h-90.584615V553.353846h90.584615V659.692308h-283.569231zM2749.046154 714.830769l-287.507692-27.569231V580.923077l287.507692 27.569231zM1272.123077 309.169231c-7.876923 7.876923-11.815385 19.692308-11.815385 27.569231V557.292308h74.83077V384c0-7.876923 0-27.569231-3.938462-43.323077l-39.384615-59.076923-19.692308 27.569231z m216.615385-279.630769l-126.03077 157.538461 63.015385 98.461539v3.938461c3.938462 7.876923 15.753846 35.446154 11.815385 94.523077V557.292308h19.692307V659.692308h-196.923077V730.584615h-106.338461V659.692308h-55.138462v-106.338462h55.138462V344.615385c-3.938462-94.523077 31.507692-118.153846 31.507692-118.153847l43.323077-55.138461-110.276923-173.292308 90.584615-59.076923 90.584616 145.723077 98.461538-126.030769 90.584616 70.892308zM2737.230769 191.015385v224.492307H2835.692308V521.846154H2374.892308v-106.338462h94.523077v-208.738461c-3.938462-11.815385 11.815385-82.707692-94.523077-82.707693v-102.4h23.630769c196.923077 7.876923 177.230769 161.476923 177.230769 173.292308v220.553846h55.138462V187.076923c3.938462-252.061538 256-208.738462 256-208.738461V68.923077c-141.784615-19.692308-149.661538 102.4-149.661539 122.092308M1827.446154 699.076923h-322.953846v-106.338461h248.123077L1654.153846 431.261538h-153.6v-106.338461h161.476923v-185.107692c-3.938462-11.815385-11.815385-102.4-129.969231-82.707693v-102.4h59.076924c181.169231 0 177.230769 161.476923 177.230769 173.292308v200.861538h110.276923v106.338462h-98.461539L1870.769231 580.923077c0 3.938462 3.938462 3.938462 3.938461 7.876923l3.938462 3.938462C1929.846154 699.076923 1827.446154 699.076923 1827.446154 699.076923"  horiz-adv-x="3150" />

    
    <glyph glyph-name="iconfanhuibaise" unicode="&#58912;" d="M716.8 76.8v-102.4h-81.92L256 384l378.88 409.6H716.8v-102.4l-296.96-307.2z"  horiz-adv-x="1024" />

    
    <glyph glyph-name="iconmairuwanbei" unicode="&#58913;" d="M414.72 179.2h204.8l15.36-15.36c20.48-20.48 20.48-51.2 0-71.68-10.24-10.24-23.04-15.36-35.84-15.36H435.2c-28.16 0-51.2 23.04-51.2 51.2 0 12.8 5.12 25.6 15.36 35.84l15.36 15.36zM755.2 442.88c15.36 2.56 30.72 0 43.52-7.68 2.56-2.56 5.12-5.12 7.68-5.12 28.16-23.04 30.72-64 7.68-92.16l-7.68-7.68L512 76.8 215.04 330.24c-28.16 23.04-30.72 64-7.68 92.16l7.68 7.68c15.36 12.8 35.84 17.92 53.76 15.36-20.48 30.72-12.8 71.68 17.92 92.16 2.56 2.56 5.12 2.56 7.68 5.12 12.8 5.12 25.6 7.68 38.4 5.12-7.68 30.72 10.24 64 40.96 76.8 2.56 0 5.12 2.56 7.68 2.56 23.04 5.12 43.52-2.56 61.44-15.36 5.12 28.16 28.16 51.2 58.88 56.32h7.68c33.28 0 61.44-23.04 66.56-56.32 12.8 12.8 30.72 17.92 51.2 17.92 2.56 0 5.12 0 10.24-2.56 35.84-7.68 58.88-43.52 51.2-79.36 10.24 2.56 20.48 0 30.72-2.56 2.56 0 5.12-2.56 10.24-2.56 33.28-15.36 48.64-53.76 30.72-87.04-2.56-5.12-2.56-7.68-5.12-12.8zM512 665.6c38.4 0 66.56-30.72 66.56-66.56v-7.68L512 76.8l-66.56 512c-5.12 35.84 20.48 71.68 58.88 76.8h7.68zM294.4 540.16c33.28 15.36 71.68 0 87.04-30.72 2.56-2.56 2.56-5.12 2.56-10.24L512 76.8l-240.64 360.96-2.56 5.12c-20.48 30.72-12.8 71.68 17.92 92.16 2.56 2.56 5.12 5.12 7.68 5.12zM729.6 540.16c33.28-15.36 48.64-53.76 30.72-87.04-2.56-2.56-2.56-5.12-5.12-7.68L512 76.8l125.44 422.4c10.24 35.84 46.08 53.76 81.92 43.52 2.56 0 5.12 0 10.24-2.56z"  horiz-adv-x="1024" />

    
    <glyph glyph-name="iconfenxiangbaise" unicode="&#58914;" d="M445.44 168.96l-76.8 15.36c71.68 327.68 256 491.52 547.84 491.52v-76.8c-250.88 0-404.48-138.24-471.04-430.08zM798.72 424.96l-61.44 51.2L865.28 640l-163.84 81.92 30.72 71.68 245.76-122.88zM844.8 343.04v-291.84h-665.6v563.2h307.2V691.2H102.4v-716.8h819.2v368.64z"  horiz-adv-x="1024" />

    
    <glyph glyph-name="iconshoucangbaise" unicode="&#58915;" d="M512-76.8l-25.6 20.48C184.32 194.56 40.96 389.12 40.96 532.48c0 133.12 81.92 250.88 204.8 286.72C343.04 849.92 440.32 819.2 512 742.4c71.68 76.8 168.96 107.52 266.24 76.8 122.88-35.84 204.8-153.6 204.8-281.6 0-148.48-148.48-343.04-450.56-593.92l-20.48-20.48zM317.44 752.64c-15.36 0-35.84-5.12-51.2-10.24-76.8-20.48-153.6-92.16-153.6-209.92 0-81.92 71.68-235.52 399.36-512 327.68 276.48 399.36 430.08 399.36 512 0 112.64-76.8 189.44-148.48 209.92-81.92 25.6-163.84-10.24-215.04-87.04l-35.84-40.96-30.72 46.08c-40.96 61.44-102.4 92.16-163.84 92.16z"  horiz-adv-x="1024" />

    
    <glyph glyph-name="iconshengouhuiyuan" unicode="&#58916;" d="M332.8 691.2l-128-230.4 307.2-409.6 307.2 409.6-115.2 230.4zM332.8 691.2l51.2-230.4 128 230.4zM512 691.2l102.4-230.4 89.6 230.4zM384 460.8h230.4l-102.4 230.4zM204.8 460.8h179.2l128-409.6zM614.4 460.8h204.8L512 51.2zM384 460.8h230.4l-102.4-409.6z"  horiz-adv-x="1024" />

    
    <glyph glyph-name="iconmaichuwanbei" unicode="&#58917;" d="M409.6 179.2h204.8l15.36-15.36c20.48-20.48 20.48-51.2 0-71.68-10.24-10.24-23.04-15.36-35.84-15.36h-163.84c-28.16 0-51.2 23.04-51.2 51.2 0 12.8 5.12 25.6 15.36 35.84l15.36 15.36zM755.2 442.88c15.36 2.56 30.72 0 43.52-7.68 2.56-2.56 5.12-5.12 7.68-5.12 28.16-23.04 30.72-64 7.68-92.16l-7.68-7.68L512 76.8 215.04 330.24c-28.16 23.04-30.72 64-7.68 92.16l7.68 7.68c15.36 12.8 35.84 17.92 53.76 15.36-20.48 30.72-12.8 71.68 17.92 92.16 2.56 2.56 5.12 2.56 7.68 5.12 12.8 5.12 25.6 7.68 38.4 5.12-7.68 30.72 10.24 64 40.96 76.8 2.56 0 5.12 2.56 7.68 2.56 23.04 5.12 43.52-2.56 61.44-15.36 5.12 28.16 28.16 51.2 58.88 56.32h7.68c33.28 0 61.44-23.04 66.56-56.32 12.8 12.8 30.72 17.92 51.2 17.92 2.56 0 5.12 0 10.24-2.56 35.84-7.68 58.88-43.52 51.2-79.36 10.24 2.56 20.48 0 30.72-2.56 2.56 0 5.12-2.56 10.24-2.56 33.28-15.36 48.64-53.76 30.72-87.04-2.56-5.12-2.56-7.68-5.12-12.8zM512 665.6c38.4 0 66.56-30.72 66.56-66.56v-7.68L512 76.8l-66.56 512c-5.12 35.84 20.48 71.68 58.88 76.8h7.68zM294.4 540.16c33.28 15.36 71.68 0 87.04-30.72 2.56-2.56 2.56-5.12 2.56-10.24L512 76.8l-240.64 360.96-2.56 5.12c-20.48 30.72-12.8 71.68 17.92 92.16 2.56 2.56 5.12 5.12 7.68 5.12zM729.6 540.16c33.28-15.36 48.64-53.76 30.72-87.04-2.56-2.56-2.56-5.12-5.12-7.68L512 76.8l125.44 422.4c10.24 35.84 46.08 53.76 81.92 43.52 2.56 0 5.12 0 10.24-2.56z"  horiz-adv-x="1024" />

    
    <glyph glyph-name="iconxiaofeiduihuan" unicode="&#58918;" d="M414.72 179.2h204.8l15.36-15.36c20.48-20.48 20.48-51.2 0-71.68-10.24-10.24-23.04-15.36-35.84-15.36H435.2c-28.16 0-51.2 23.04-51.2 51.2 0 12.8 5.12 25.6 15.36 35.84l15.36 15.36zM755.2 442.88c15.36 2.56 30.72 0 43.52-7.68 2.56-2.56 5.12-5.12 7.68-5.12 28.16-23.04 30.72-64 7.68-92.16l-7.68-7.68L512 76.8 215.04 330.24c-28.16 23.04-30.72 64-7.68 92.16l7.68 7.68c15.36 12.8 35.84 17.92 53.76 15.36-20.48 30.72-12.8 71.68 17.92 92.16 2.56 2.56 5.12 2.56 7.68 5.12 12.8 5.12 25.6 7.68 38.4 5.12-7.68 30.72 10.24 64 40.96 76.8 2.56 0 5.12 2.56 7.68 2.56 23.04 5.12 43.52-2.56 61.44-15.36 5.12 28.16 28.16 51.2 58.88 56.32h7.68c33.28 0 61.44-23.04 66.56-56.32 12.8 12.8 30.72 17.92 51.2 17.92 2.56 0 5.12 0 10.24-2.56 35.84-7.68 58.88-43.52 51.2-79.36 10.24 2.56 20.48 0 30.72-2.56 2.56 0 5.12-2.56 10.24-2.56 33.28-15.36 48.64-53.76 30.72-87.04-2.56-5.12-2.56-7.68-5.12-12.8zM512 665.6c38.4 0 66.56-30.72 66.56-66.56v-7.68L512 76.8l-66.56 512c-5.12 35.84 20.48 71.68 58.88 76.8h7.68zM294.4 540.16c33.28 15.36 71.68 0 87.04-30.72 2.56-2.56 2.56-5.12 2.56-10.24L512 76.8l-240.64 360.96-2.56 5.12c-20.48 30.72-12.8 71.68 17.92 92.16 2.56 2.56 5.12 5.12 7.68 5.12zM729.6 540.16c33.28-15.36 48.64-53.76 30.72-87.04-2.56-2.56-2.56-5.12-5.12-7.68L512 76.8l125.44 422.4c10.24 35.84 46.08 53.76 81.92 43.52 2.56 0 5.12 0 10.24-2.56z"  horiz-adv-x="1024" />

    
    <glyph glyph-name="weixin" unicode="&#58919;" d="M396.8 285.867c-4.267 0-8.533-4.267-12.8-4.267-12.8 0-21.333 4.267-25.6 12.8v4.267l-76.8 170.666V473.6c0 8.533 4.267 12.8 12.8 12.8 4.267 0 4.267 0 8.533-4.267l93.867-64c8.533-4.266 12.8-8.533 25.6-8.533 4.267 0 8.533 0 12.8 4.267l430.933 192c-76.8 89.6-204.8 149.333-349.866 149.333C281.6 755.2 89.6 597.333 89.6 401.067c0-106.667 55.467-204.8 149.333-268.8 8.534-4.267 12.8-12.8 12.8-21.334v-8.533c-8.533-25.6-17.066-68.267-17.066-72.533v-12.8c0-8.534 4.266-12.8 12.8-12.8 4.266 0 4.266 0 8.533 4.266L349.867 64c8.533 4.267 12.8 8.533 21.333 8.533H384c42.667-12.8 89.6-21.333 140.8-21.333 234.667 0 426.667 157.867 426.667 354.133 0 59.734-17.067 115.2-46.934 166.4L396.8 285.867z"  horiz-adv-x="1024" />

    
    <glyph glyph-name="zhifubao" unicode="&#58920;" d="M294.4 345.6c76.8 8.533 153.6-21.333 238.933-64C473.6 200.533 396.8 153.6 320 153.6c-132.267 0-170.667 106.667-106.667 162.133C230.4 337.067 273.067 345.6 294.4 345.6m494.933-72.533c-34.133 12.8-81.066 29.866-132.266 46.933 29.866 51.2 55.466 115.2 72.533 179.2H563.2v64H768v34.133H563.2v98.134h-85.333c-12.8 0-12.8-12.8-12.8-12.8v-85.334H251.733V563.2H460.8v-59.733H290.133v-34.134h332.8c-12.8-42.666-29.866-81.066-46.933-119.466-106.667 34.133-221.867 64-294.4 46.933-46.933-12.8-76.8-29.867-93.867-51.2-81.066-98.133-21.333-247.467 149.334-247.467 102.4 0 196.266 55.467 273.066 149.334C721.067 192 942.933 102.4 942.933 102.4v-4.267c0-34.133-12.8-72.533-38.4-98.133-25.6-25.6-59.733-38.4-98.133-38.4H221.867c-34.134 0-72.534 12.8-98.134 38.4-25.6 21.333-38.4 59.733-38.4 93.867V674.133c0 34.134 12.8 72.534 38.4 98.134 25.6 25.6 64 38.4 98.134 38.4h580.266c34.134 0 72.534-12.8 98.134-38.4 25.6-25.6 38.4-64 38.4-98.134V230.4s-29.867 4.267-149.334 42.667"  horiz-adv-x="1024" />

    
    <glyph glyph-name="yinlian" unicode="&#58921;" d="M780.8 810.667H238.933c-85.333 0-153.6-68.267-153.6-153.6V115.2c0-85.333 68.267-153.6 153.6-153.6H780.8c76.8 0 140.8 55.467 153.6 128v4.267h4.267v563.2c0 85.333-68.267 153.6-157.867 153.6z m0 0M733.867 810.667L546.133-42.667H780.8c76.8 0 140.8 55.467 153.6 128V89.6h4.267V657.067c0 85.333-68.267 153.6-153.6 153.6h-51.2z m0 0M439.467 810.667H238.933c-85.333 0-153.6-68.267-153.6-153.6V115.2c0-85.333 64-149.333 149.334-153.6l204.8 849.067z m0 0M460.8 358.4l-8.533-12.8c0-4.267-4.267-4.267-4.267-4.267h-12.8l-4.267-17.066h12.8c4.267 0 12.8 4.266 12.8 4.266 4.267 0 4.267 0 4.267 4.267l4.267 4.267h42.666L512 354.133h-29.867l4.267 8.534c4.267-4.267-25.6-4.267-25.6-4.267z m273.067-55.467H768l-4.267-17.066h-38.4l-4.266-17.067h29.866L729.6 238.933l-4.267-4.266h-12.8l4.267 8.533h-8.533l29.866 98.133h8.534l4.266 12.8v-12.8c0-8.533 4.267-12.8 17.067-12.8h17.067l4.266 17.067h-4.266c-4.267 0-4.267 0-4.267 4.267v12.8h-29.867c-8.533 0-38.4 0-46.933-4.267-8.533 0-12.8-8.533-12.8-8.533l4.267 8.533H665.6l-4.267-21.333-29.866-98.134H627.2l-4.267-17.066H678.4v-4.267h29.867v4.267h8.533l-12.8-8.534h21.333c12.8 0 17.067 4.267 21.334 12.8l17.066 21.334L768 226.133c0-4.266 4.267-4.266 4.267-8.533 4.266 0 4.266-4.267 8.533-4.267h17.067l4.266 21.334h-12.8v4.266l-4.266 21.334h-12.8l4.266 8.533h34.134l4.266 17.067h-29.866l4.266 17.066H819.2L823.467 320h-89.6v-17.067zM678.4 243.2h-21.333l4.266 21.333h21.334L678.4 243.2z m12.8 38.4h-12.8c-4.267 0-12.8-4.267-12.8-4.267l8.533 25.6h21.334L691.2 281.6z m0 38.4c-4.267 0-12.8-4.267-12.8-4.267l8.533 25.6h21.334L704 324.267C699.733 320 695.467 320 691.2 320z m-234.667-85.333l8.534 25.6h29.866l4.267 17.066h-29.867L473.6 294.4h29.867l4.266 17.067h-76.8l-4.266-17.067h17.066l-4.266-17.067H422.4l-4.267-17.066H435.2l-8.533-34.134v-8.533l4.266-4.267H473.6l4.267 21.334h-21.334zM332.8 482.133c-4.267 0-12.8 0-21.333-4.266-4.267 0-4.267-4.267-8.534-4.267l4.267 8.533c-12.8-4.266-17.067-4.266-29.867-8.533 0-12.8-4.266-25.6-8.533-51.2 0-8.533-4.267-21.333-8.533-29.867h29.866c0 8.534 0 8.534 4.267 25.6 0 8.534 4.267 25.6 8.533 29.867 4.267 0 4.267 4.267 8.534 4.267 8.533 0 4.266-4.267 4.266-8.534 0-8.533-4.266-17.066-4.266-29.866v-8.534l-4.267-17.066h29.867c4.266 12.8 4.266 17.066 8.533 34.133v8.533c4.267 17.067 4.267 25.6 4.267 29.867 0 17.067-8.534 21.333-17.067 21.333zM273.067 537.6h-34.134c0-4.267-17.066-81.067-17.066-81.067-4.267-17.066-4.267-25.6-17.067-34.133-4.267-4.267-12.8-4.267-17.067-4.267-12.8 0-17.066 4.267-17.066 17.067v4.267l4.266 21.333s17.067 68.267 21.334 81.067h-38.4v-4.267L140.8 460.8v-8.533l-12.8-25.6c0-4.267 0-12.8 4.267-17.067 8.533-12.8 29.866-17.067 42.666-17.067 17.067 0 34.134 4.267 42.667 8.534 17.067 12.8 25.6 29.866 29.867 42.666v8.534c4.266 0 21.333 72.533 25.6 85.333z m311.466-268.8c-4.266-4.267-4.266-4.267-8.533-4.267h-4.267v12.8h-25.6v-38.4H524.8v8.534l12.8 38.4h55.467c4.266 0 4.266 0 8.533 4.266l8.533 8.534c0 4.266 4.267 8.533 8.534 17.066l12.8 51.2H588.8s-12.8-4.266-17.067-4.266c-4.266 0-12.8-8.534-12.8-8.534l4.267 12.8h-25.6L499.2 243.2c0-4.267-4.267-8.533-4.267-8.533 0-4.267 4.267-4.267 4.267-4.267h42.667l4.266 21.333v-8.533c0-4.267 0-4.267 4.267-8.533s12.8-4.267 21.333-4.267H588.8l4.267 21.333H576V268.8h12.8c8.533 0 12.8 4.267 12.8 4.267 4.267 4.266 4.267 4.266 4.267 8.533l4.266 12.8H588.8c0-17.067-4.267-25.6-4.267-25.6zM550.4 337.067h42.667l-4.267-12.8h-25.6c-12.8-4.267-21.333-8.534-21.333-8.534l8.533 21.334z m-4.267-29.867H588.8l-4.267-8.533h-42.666l4.266 8.533z m-119.466 89.6c4.266-4.267 12.8-4.267 21.333-4.267 12.8 0 29.867 4.267 38.4 17.067 8.533 8.533 12.8 21.333 12.8 29.867 4.267 17.066 0 25.6-4.267 34.133-4.266 8.533-17.066 12.8-29.866 12.8-8.534 0-25.6 0-38.4-12.8-8.534-8.533-12.8-21.333-17.067-29.867 0-21.333-4.267-38.4 17.067-46.933z m17.066 38.4c4.267 12.8 8.534 25.6 17.067 25.6s8.533-8.533 4.267-25.6c0-4.267-4.267-12.8-8.534-21.333-4.266-4.267-4.266-4.267-8.533-4.267 0 0-8.533 0-8.533 8.533s4.266 12.8 4.266 17.067z m-76.8 21.333c0-8.533-4.266-12.8-4.266-17.066 0-4.267-4.267-12.8-4.267-21.334s-4.267-8.533-4.267-12.8c0-4.266 0-4.266-4.266-12.8H384v12.8c0 4.267 0 8.534 4.267 21.334L396.8 460.8c-8.533 0-12.8-4.267-17.067-4.267 0 4.267-4.266 4.267-12.8 0z m541.867 25.6c-17.067-4.266-17.067-4.266-29.867-4.266-8.533-25.6-8.533-17.067-17.066-38.4v42.666c-17.067-4.266-17.067-4.266-29.867-4.266 0-8.534 0-8.534 4.267-21.334 0-8.533 0-12.8 4.266-21.333 0-12.8 4.267-17.067 4.267-34.133-8.533-17.067-12.8-21.334-21.333-38.4h29.866l4.267 4.266c-8.533 8.534 55.467 110.934 51.2 115.2zM712.533 435.2c-4.266-12.8-4.266-29.867 12.8-38.4 4.267-4.267 12.8-4.267 17.067-4.267 4.267 0 12.8 4.267 12.8 8.534v-4.267h34.133c0 12.8 4.267 25.6 8.534 51.2l12.8 29.867c-12.8-4.267-21.334-4.267-34.134-4.267v-4.267c-4.266 4.267-4.266 8.534-8.533 8.534-4.267 4.266-21.333 0-34.133-12.8-12.8-8.534-17.067-21.334-21.334-29.867z m34.134 0c4.266 12.8 8.533 25.6 17.066 25.6 4.267 0 8.534-4.267 8.534-17.067v-8.533c0-4.267 0-8.533-4.267-12.8 0 0 0-4.267-4.267-4.267-4.266-4.266-8.533-4.266-12.8-4.266 0 0-8.533 0-8.533 8.533 0 0 0 8.533 4.267 12.8zM640 426.667s4.267 17.066 4.267 21.333l4.266 4.267c21.334 0 42.667 0 59.734 12.8 12.8 8.533 21.333 21.333 25.6 38.4v12.8c0 4.266 0 12.8-4.267 17.066-8.533 12.8-25.6 12.8-46.933 12.8h-46.934v-4.266L627.2 499.2s-21.333-93.867-25.6-98.133H640c-4.267 0 0 25.6 0 25.6z m12.8 42.666L661.333 512v4.267h25.6c8.534-4.267 12.8-8.534 8.534-21.334 0-8.533-8.534-17.066-17.067-21.333-4.267-4.267-12.8-4.267-21.333-4.267H652.8zM401.067 486.4c-4.267 4.267-17.067 4.267-25.6-4.267-8.534-4.266-8.534-12.8-4.267-17.066 8.533-4.267 17.067-4.267 25.6 4.266 12.8 4.267 12.8 12.8 4.267 17.067z m128-89.6c4.266 8.533 4.266 12.8 8.533 25.6 0 8.533 4.267 25.6 8.533 29.867 4.267 0 4.267 4.266 8.534 4.266 8.533 0 4.266-4.266 4.266-8.533 0-8.533-4.266-17.067-4.266-29.867v-8.533l-4.267-17.067h34.133c0 12.8 4.267 17.067 4.267 34.134V435.2c4.267 17.067 4.267 25.6 4.267 29.867-4.267 8.533-12.8 8.533-17.067 8.533-4.267 0-12.8 0-21.333-4.267-4.267 0-4.267-4.266-8.534-4.266V473.6c-17.066-4.267-17.066-4.267-34.133-4.267 0-12.8-4.267-25.6-8.533-51.2-4.267-8.533-4.267-21.333-8.534-29.866C512 396.8 516.267 396.8 529.067 396.8z m0 0M840.533 358.4l-12.8-21.333c-4.266-8.534-12.8-12.8-21.333-12.8h-17.067l4.267 17.066h12.8l8.533 12.8 25.6 4.267z m0 0"  horiz-adv-x="1024" />

    
    <glyph glyph-name="icon_sousuo" unicode="&#58922;" d="M488.727273 58.181818C297.890909 58.181818 139.636364 216.436364 139.636364 407.272727S297.890909 756.363636 488.727273 756.363636 837.818182 598.109091 837.818182 407.272727 679.563636 58.181818 488.727273 58.181818z m0 605.090909C349.090909 663.272727 232.727273 546.909091 232.727273 407.272727S349.090909 151.272727 488.727273 151.272727s256 116.363636 256 256S628.363636 663.272727 488.727273 663.272727zM725.550545 107.194182l65.815273 65.861818 190.882909-190.929455-65.815272-65.815272z"  horiz-adv-x="1024" />

    
    <glyph glyph-name="yishoucang" unicode="&#58923;" d="M512 384m-512 0a512 512 0 1 1 1024 0 512 512 0 1 1-1024 0ZM256 444.8c0-83.2 89.6-201.6 272-348.8 182.4 150.4 272 265.6 272 352 0 147.2-182.4 227.2-272 89.6C438.4 675.2 256 595.2 256 444.8z"  horiz-adv-x="1024" />

    
    <glyph glyph-name="fanhui" unicode="&#58924;" d="M512 384m-512 0a512 512 0 1 1 1024 0 512 512 0 1 1-1024 0ZM608 192v-64h-51.2L320 384l236.8 256H608v-64l-185.6-192z"  horiz-adv-x="1024" />

    
    <glyph glyph-name="fenxiang" unicode="&#58925;" d="M512 384m-512 0a512 512 0 1 1 1024 0 512 512 0 1 1-1024 0ZM470.4 275.2l-48 9.6c44.8 204.8 160 307.2 342.4 307.2V544c-156.8 0-252.8-89.6-294.4-268.8zM691.2 435.2l-38.4 32 80 102.4-102.4 51.2 19.2 44.8 153.6-76.8zM720 384v-185.6h-416v352h192V601.6H256v-448h512V384z"  horiz-adv-x="1024" />

    
    <glyph glyph-name="shoucang" unicode="&#58926;" d="M512 384m-512 0a512 512 0 1 1 1024 0 512 512 0 1 1-1024 0ZM512 96l-16 12.8C310.4 259.2 217.6 384 217.6 476.8c0 86.4 51.2 156.8 131.2 182.4 60.8 19.2 121.6 0 166.4-48 44.8 48 105.6 67.2 166.4 48 76.8-22.4 128-92.8 128-179.2 0-96-89.6-211.2-281.6-371.2l-16-12.8zM390.4 617.6c-9.6 0-22.4 0-32-3.2-48-12.8-96-60.8-96-134.4 0-41.6 32-140.8 246.4-316.8 163.2 137.6 249.6 246.4 249.6 320 0 70.4-48 118.4-96 131.2-51.2 16-99.2-6.4-134.4-54.4l-19.2-32-19.2 32c-22.4 35.2-57.6 57.6-99.2 57.6z"  horiz-adv-x="1024" />

    


  </font>
</defs>
</svg>
